<?xml version="1.0" encoding="UTF-8" standalone="no"?>
<!-- Created with Inkscape (http://www.inkscape.org/) -->

<svg
   version="1.1"
   id="svg18"
   width="685.47113"
   height="340.62384"
   viewBox="0 0 685.47113 340.62384"
   xmlns="http://www.w3.org/2000/svg"
   xmlns:svg="http://www.w3.org/2000/svg">
  <defs
     id="defs22" />
  <g
     id="g26"
     transform="matrix(1.3333333,0,0,1.3333333,-0.00148867,-0.00148867)">
    <g
       id="g28">
      <text
         xml:space="preserve"
         transform="translate(197.13528,185.48038)"
         style="font-variant:normal;font-weight:normal;font-size:14px;font-family:Courier;-inkscape-font-specification:Courier;writing-mode:lr-tb;fill:#000000;fill-opacity:1;fill-rule:nonzero;stroke:none"
         id="text32"><tspan
           x="0 8.3999996 16.799999 25.200001 33.599998 42"
           y="0"
           id="tspan30">assay4</tspan></text>
      <g
         id="g34">
        <path
           d="M 114.301,102.945 V 81.016 H 82.148"
           style="fill:none;stroke:#000000;stroke-width:0.698936;stroke-linecap:butt;stroke-linejoin:miter;stroke-miterlimit:4;stroke-dasharray:none;stroke-opacity:1"
           id="path36" />
      </g>
      <g
         id="g38">
        <path
           d="m 114.328,135.398 v 22.473 H 91.59"
           style="fill:none;stroke:#000000;stroke-width:0.582849;stroke-linecap:butt;stroke-linejoin:miter;stroke-miterlimit:4;stroke-dasharray:none;stroke-opacity:1"
           id="path40" />
      </g>
      <g
         id="g42">
        <path
           d="m 35.223,63.973 h 40.242 c 3.125,0 5.64,2.515 5.64,5.64 v 104.676 c 0,3.125 -2.515,5.641 -5.64,5.641 H 35.223 c -3.125,0 -5.641,-2.516 -5.641,-5.641 V 69.613 c 0,-3.125 2.516,-5.64 5.641,-5.64 z"
           style="fill:#ffd5d5;fill-opacity:1;fill-rule:nonzero;stroke:#646464;stroke-width:0.499335;stroke-linecap:butt;stroke-linejoin:miter;stroke-miterlimit:4;stroke-dasharray:none;stroke-opacity:1"
           id="path44" />
      </g>
      <g
         id="g46">
        <path
           d="m 136.66,76.637 h 105.535 c 2.606,0 4.703,2.097 4.703,4.703 v 87.293 c 0,2.609 -2.097,4.707 -4.703,4.707 H 136.66 c -2.605,0 -4.703,-2.098 -4.703,-4.707 V 81.34 c 0,-2.606 2.098,-4.703 4.703,-4.703 z"
           style="fill:#ff6e6d;fill-opacity:1;fill-rule:nonzero;stroke:#646464;stroke-width:0.681084;stroke-linecap:butt;stroke-linejoin:miter;stroke-miterlimit:4;stroke-dasharray:none;stroke-opacity:1"
           id="path48" />
      </g>
      <g
         id="g50">
        <path
           d="M 29.586,76.121 H 81.098 V 84.07 H 29.586 Z"
           style="fill:#8ec1dd;fill-opacity:1;fill-rule:nonzero;stroke:#000000;stroke-width:0.525;stroke-linecap:butt;stroke-linejoin:miter;stroke-miterlimit:4;stroke-dasharray:4.2, 4.2;stroke-dashoffset:0;stroke-opacity:1"
           id="path52" />
      </g>
      <g
         id="g54">
        <path
           d="m 41.824,77.781 h 40.242 c 3.125,0 5.641,2.516 5.641,5.641 v 104.68 c 0,3.125 -2.516,5.64 -5.641,5.64 H 41.824 c -3.125,0 -5.64,-2.515 -5.64,-5.64 V 83.422 c 0,-3.125 2.515,-5.641 5.64,-5.641 z"
           style="fill:#ff9797;fill-opacity:1;fill-rule:nonzero;stroke:#646464;stroke-width:0.499335;stroke-linecap:butt;stroke-linejoin:miter;stroke-miterlimit:4;stroke-dasharray:none;stroke-opacity:1"
           id="path56" />
      </g>
      <g
         id="g58">
        <path
           d="m 36.188,153.938 h 51.789 v 7.949 H 36.188 Z"
           style="fill:#8ec1dd;fill-opacity:1;fill-rule:nonzero;stroke:#000000;stroke-width:0.525;stroke-linecap:butt;stroke-linejoin:miter;stroke-miterlimit:4;stroke-dasharray:4.2, 4.2;stroke-dashoffset:0;stroke-opacity:1"
           id="path60" />
      </g>
      <g
         id="g62">
        <path
           d="m 99.547,138.398 h 14.781 V 98.875 c 13.629,-0.145 0,0 13.629,-0.145"
           style="fill:none;stroke:#000000;stroke-width:0.583767;stroke-linecap:butt;stroke-linejoin:miter;stroke-miterlimit:3.5;stroke-dasharray:none;stroke-opacity:1"
           id="path64" />
      </g>
      <g
         id="g66">
        <path
           d="m 100.406,138.398 c 0,0.485 -0.39,0.875 -0.875,0.875 -0.484,0 -0.875,-0.39 -0.875,-0.875 0,-0.484 0.391,-0.875 0.875,-0.875 0.485,0 0.875,0.391 0.875,0.875 z"
           style="fill:#000000;fill-opacity:1;fill-rule:evenodd;stroke:#000000;stroke-width:0.233507;stroke-linecap:butt;stroke-linejoin:miter;stroke-miterlimit:4;stroke-dasharray:none;stroke-opacity:1"
           id="path68" />
      </g>
      <g
         id="g70"
         transform="matrix(-1,0.010796,-0.010796,-1,0,0)">
        <path
           d="m -122.338,-98.215 -5.101,-1.876 5.102,-1.878 c -0.816,1.108 -0.809,2.624 -10e-4,3.754 z"
           style="fill:#000000;fill-opacity:1;fill-rule:evenodd;stroke:#000000;stroke-width:0.291866;stroke-linecap:butt;stroke-linejoin:round;stroke-miterlimit:4;stroke-dasharray:none;stroke-opacity:1"
           id="path72" />
      </g>
      <g
         id="g74">
        <path
           d="M 99.508,114.203 H 114.48"
           style="fill:none;stroke:#000000;stroke-width:0.574642;stroke-linecap:butt;stroke-linejoin:miter;stroke-miterlimit:4;stroke-dasharray:none;stroke-opacity:1"
           id="path76" />
      </g>
      <g
         id="g78">
        <path
           d="m 100.355,114.203 c 0,0.473 -0.386,0.859 -0.863,0.859 -0.476,0 -0.863,-0.386 -0.863,-0.859 0,-0.476 0.387,-0.863 0.863,-0.863 0.477,0 0.863,0.387 0.863,0.863 z"
           style="fill:#000000;fill-opacity:1;fill-rule:evenodd;stroke:#000000;stroke-width:0.229857;stroke-linecap:butt;stroke-linejoin:miter;stroke-miterlimit:4;stroke-dasharray:none;stroke-opacity:1"
           id="path80" />
      </g>
      <g
         id="g82">
        <path
           d="m 99.523,105.938 h 15.008"
           style="fill:none;stroke:#000000;stroke-width:0.583255;stroke-linecap:butt;stroke-linejoin:miter;stroke-miterlimit:4;stroke-dasharray:none;stroke-opacity:1"
           id="path84" />
      </g>
      <g
         id="g86">
        <path
           d="m 100.379,105.938 c 0,0.48 -0.391,0.874 -0.875,0.874 -0.481,0 -0.875,-0.394 -0.875,-0.874 0,-0.485 0.394,-0.876 0.875,-0.876 0.484,0 0.875,0.391 0.875,0.876 z"
           style="fill:#000000;fill-opacity:1;fill-rule:evenodd;stroke:#000000;stroke-width:0.233302;stroke-linecap:butt;stroke-linejoin:miter;stroke-miterlimit:4;stroke-dasharray:none;stroke-opacity:1"
           id="path88" />
      </g>
      <g
         id="g90">
        <path
           d="m 114.176,122.824 13.625,-0.148"
           style="fill:none;stroke:#000000;stroke-width:0.583767;stroke-linecap:butt;stroke-linejoin:miter;stroke-miterlimit:3.5;stroke-dasharray:none;stroke-opacity:1"
           id="path92" />
      </g>
      <g
         id="g94"
         transform="matrix(-1,0.010796,-0.010796,-1,0,0)">
        <path
           d="m -121.923,-122.156 -5.105,-1.879 5.102,-1.875 c -0.813,1.108 -0.809,2.624 0.003,3.754 z"
           style="fill:#000000;fill-opacity:1;fill-rule:evenodd;stroke:#000000;stroke-width:0.291866;stroke-linecap:butt;stroke-linejoin:round;stroke-miterlimit:4;stroke-dasharray:none;stroke-opacity:1"
           id="path96" />
      </g>
      <g
         id="g98">
        <path
           d="m 251.047,123.77 h 14.777 v -10.528 l 13.629,-0.144"
           style="fill:none;stroke:#000000;stroke-width:0.583767;stroke-linecap:butt;stroke-linejoin:miter;stroke-miterlimit:3.5;stroke-dasharray:none;stroke-opacity:1"
           id="path100" />
      </g>
      <g
         id="g102">
        <path
           d="m 251.902,123.77 c 0,0.48 -0.39,0.875 -0.875,0.875 -0.484,0 -0.875,-0.395 -0.875,-0.875 0,-0.485 0.391,-0.879 0.875,-0.879 0.485,0 0.875,0.394 0.875,0.879 z"
           style="fill:#000000;fill-opacity:1;fill-rule:evenodd;stroke:#000000;stroke-width:0.233507;stroke-linecap:butt;stroke-linejoin:miter;stroke-miterlimit:4;stroke-dasharray:none;stroke-opacity:1"
           id="path104" />
      </g>
      <g
         id="g106"
         transform="matrix(-1,0.010796,-0.010796,-1,0,0)">
        <path
           d="m -273.661,-114.216 -5.101,-1.876 5.102,-1.878 c -0.817,1.108 -0.81,2.624 -10e-4,3.754 z"
           style="fill:#000000;fill-opacity:1;fill-rule:evenodd;stroke:#000000;stroke-width:0.291866;stroke-linecap:butt;stroke-linejoin:round;stroke-miterlimit:4;stroke-dasharray:none;stroke-opacity:1"
           id="path108" />
      </g>
      <g
         id="g110">
        <path
           d="m 251.012,103.148 h 14.808 c 0,10.137 0,10.137 0,10.137 h 0.293"
           style="fill:none;stroke:#000000;stroke-width:0.571594;stroke-linecap:butt;stroke-linejoin:miter;stroke-miterlimit:4;stroke-dasharray:none;stroke-opacity:1"
           id="path112" />
      </g>
      <g
         id="g114">
        <path
           d="m 251.855,103.148 c 0,0.473 -0.386,0.856 -0.859,0.856 -0.473,0 -0.855,-0.383 -0.855,-0.856 0,-0.476 0.382,-0.859 0.855,-0.859 0.473,0 0.859,0.383 0.859,0.859 z"
           style="fill:#000000;fill-opacity:1;fill-rule:evenodd;stroke:#000000;stroke-width:0.228638;stroke-linecap:butt;stroke-linejoin:miter;stroke-miterlimit:4;stroke-dasharray:none;stroke-opacity:1"
           id="path116" />
      </g>
      <text
         xml:space="preserve"
         transform="translate(12.134958,49.624264)"
         style="font-variant:normal;font-weight:normal;font-size:15.5426px;font-family:'DejaVu Sans';-inkscape-font-specification:DejaVuSans;writing-mode:lr-tb;fill:#000000;fill-opacity:1;fill-rule:nonzero;stroke:none"
         id="text124"><tspan
           x="0 9.3722115 19.226246 32.624001 37.551018 47.358425 56.870522 62.963234"
           y="0"
           id="tspan118">PSM data</tspan><tspan
           x="130.23064 139.05885 148.61757 158.4716 164.56432 168.86963 178.67703 188.23576 193.16278 203.01682 212.52892 218.62163"
           y="1.1656716"
           id="tspan120">Peptide data</tspan><tspan
           x="283.42914 292.53711 298.59875 308.09531 314.18802 323.74673 328.05206 337.8439 342.77094 352.62497 362.13705 368.22977"
           y="3.4971142"
           id="tspan122">Protein data</tspan></text>
      <g
         id="g126">
        <path
           d="m 50,90.176 h 40.242 c 3.125,0 5.641,2.515 5.641,5.64 v 104.676 c 0,3.125 -2.516,5.641 -5.641,5.641 H 50 c -3.125,0 -5.641,-2.516 -5.641,-5.641 V 95.816 c 0,-3.125 2.516,-5.64 5.641,-5.64 z"
           style="fill:#ff6e6d;fill-opacity:1;fill-rule:nonzero;stroke:#646464;stroke-width:0.499335;stroke-linecap:butt;stroke-linejoin:miter;stroke-miterlimit:4;stroke-dasharray:none;stroke-opacity:1"
           id="path128" />
      </g>
      <g
         id="g130">
        <path
           d="m 44.332,133.609 h 51.531 v 7.949 H 44.332 Z"
           style="fill:#8ec1dd;fill-opacity:1;fill-rule:nonzero;stroke:#000000;stroke-width:0.525;stroke-linecap:butt;stroke-linejoin:miter;stroke-miterlimit:4;stroke-dasharray:4.2, 4.2;stroke-dashoffset:0;stroke-opacity:1"
           id="path132" />
      </g>
      <g
         id="g134"
         transform="scale(0.931062,1)">
        <path
           d="M 0.327,31.742 H 551.894 V 255.176 H 0.327 Z"
           style="fill:none;stroke:#000000;stroke-width:0.551898;stroke-linecap:butt;stroke-linejoin:miter;stroke-miterlimit:3.5;stroke-dasharray:none;stroke-opacity:1"
           id="path136" />
      </g>
      <text
         xml:space="preserve"
         transform="translate(434.09464,53.121376)"
         style="font-variant:normal;font-weight:normal;font-size:15.5426px;font-family:'DejaVu Sans';-inkscape-font-specification:DejaVuSans;writing-mode:lr-tb;fill:#000000;fill-opacity:1;fill-rule:nonzero;stroke:none"
         id="text142"><tspan
           x="0 9.8540335 19.366129 34.504662 44.358696 48.617378 58.176102"
           y="0"
           id="tspan138">Sample </tspan><tspan
           x="-8.5454369 6.5930948 16.151817 22.244534 31.756628 41.610664 51.07613 57.168846"
           y="19.428301"
           id="tspan140">metadata</tspan></text>
      <text
         xml:space="preserve"
         transform="translate(437.31281,213.18336)"
         style="font-variant:normal;font-weight:normal;font-size:14px;font-family:Courier;-inkscape-font-specification:Courier;writing-mode:lr-tb;fill:#000000;fill-opacity:1;fill-rule:nonzero;stroke:none"
         id="text146"><tspan
           x="0 8.3999996 16.799999 25.200001 33.599998 42 50.400002"
           y="0"
           id="tspan144">colData</tspan></text>
      <g
         id="g148">
        <path
           d="M 0.293,0.293 H 127.977 V 31.727 H 0.293 Z"
           style="fill:#ff9797;fill-opacity:1;fill-rule:nonzero;stroke:#646464;stroke-width:0.583767;stroke-linecap:butt;stroke-linejoin:miter;stroke-miterlimit:3.5;stroke-dasharray:none;stroke-opacity:1"
           id="path150" />
      </g>
      <text
         xml:space="preserve"
         transform="translate(14.320966,18.944381)"
         style="font-variant:normal;font-weight:normal;font-size:18.6512px;font-family:Courier;-inkscape-font-specification:Courier;writing-mode:lr-tb;fill:#000000;fill-opacity:1;fill-rule:nonzero;stroke:none"
         id="text154"><tspan
           x="0 11.190701 22.381401 33.572102 44.762802 55.953503 67.144203 78.278954 89.46965"
           y="0"
           id="tspan152">QFeatures</tspan></text>
      <g
         id="g156">
        <path
           d="m 209.809,76.637 h 32.386 c 2.606,0 4.703,2.097 4.703,4.703 v 87.293 c 0,2.609 -2.097,4.707 -4.703,4.707 h -32.386 c -2.606,0 -4.707,-2.098 -4.707,-4.707 V 81.34 c 0,-2.606 2.101,-4.703 4.707,-4.703 z"
           style="fill:#ffd5d5;fill-opacity:1;fill-rule:nonzero;stroke:#646464;stroke-width:0.410703;stroke-linecap:butt;stroke-linejoin:miter;stroke-miterlimit:4;stroke-dasharray:none;stroke-opacity:1"
           id="path158" />
      </g>
      <g
         id="g160">
        <path
           d="m 171.316,76.445 h 36.653 c 0.113,0 0.203,0.094 0.203,0.207 v 96.5 c 0,0.114 -0.09,0.203 -0.203,0.203 h -36.653 c -0.113,0 -0.203,-0.089 -0.203,-0.203 v -96.5 c 0,-0.113 0.09,-0.207 0.203,-0.207 z"
           style="fill:#ff9797;fill-opacity:1;fill-rule:nonzero;stroke:#646464;stroke-width:0.387157;stroke-linecap:butt;stroke-linejoin:miter;stroke-miterlimit:4;stroke-dasharray:none;stroke-opacity:1"
           id="path162" />
      </g>
      <g
         id="g164">
        <path
           d="m 131.918,99.324 h 114.934 v 7.766 H 131.918 Z"
           style="fill:#8ec1dd;fill-opacity:1;fill-rule:nonzero;stroke:#000000;stroke-width:0.525;stroke-linecap:butt;stroke-linejoin:miter;stroke-miterlimit:4;stroke-dasharray:4.2, 4.2;stroke-dashoffset:0;stroke-opacity:1"
           id="path166" />
      </g>
      <g
         id="g168">
        <path
           d="m 131.977,119.668 h 114.934 v 7.766 H 131.977 Z"
           style="fill:#8ec1dd;fill-opacity:1;fill-rule:nonzero;stroke:#000000;stroke-width:0.525;stroke-linecap:butt;stroke-linejoin:miter;stroke-miterlimit:4;stroke-dasharray:4.2, 4.2;stroke-dashoffset:0;stroke-opacity:1"
           id="path170" />
      </g>
      <g
         id="g172">
        <path
           d="m 155.469,76.281 h 9.543 v 96.809 h -9.543 z"
           style="fill:#ffe991;fill-opacity:1;fill-rule:nonzero;stroke:#000000;stroke-width:0.525;stroke-linecap:butt;stroke-linejoin:miter;stroke-miterlimit:4;stroke-dasharray:4.2, 4.2;stroke-dashoffset:0;stroke-opacity:1"
           id="path174" />
      </g>
      <g
         id="g176">
        <path
           d="m 289.91,87.184 h 110.082 c 1.395,0 2.516,1.121 2.516,2.515 v 46.645 c 0,1.394 -1.121,2.515 -2.516,2.515 H 289.91 c -1.394,0 -2.515,-1.121 -2.515,-2.515 V 89.699 c 0,-1.394 1.121,-2.515 2.515,-2.515 z"
           style="fill:#ff6e6d;fill-opacity:1;fill-rule:nonzero;stroke:#646464;stroke-width:0.498228;stroke-linecap:butt;stroke-linejoin:miter;stroke-miterlimit:4;stroke-dasharray:none;stroke-opacity:1"
           id="path178" />
      </g>
      <g
         id="g180">
        <path
           d="m 363.164,87.184 h 36.828 c 1.395,0 2.516,1.121 2.516,2.515 v 46.645 c 0,1.394 -1.121,2.515 -2.516,2.515 h -36.828 c -1.394,0 -2.516,-1.121 -2.516,-2.515 V 89.699 c 0,-1.394 1.122,-2.515 2.516,-2.515 z"
           style="fill:#ffd5d5;fill-opacity:1;fill-rule:nonzero;stroke:#646464;stroke-width:0.300438;stroke-linecap:butt;stroke-linejoin:miter;stroke-miterlimit:4;stroke-dasharray:none;stroke-opacity:1"
           id="path182" />
      </g>
      <g
         id="g184">
        <path
           d="m 326.719,87.082 h 36.894 c 0.063,0 0.11,0.051 0.11,0.113 v 51.563 c 0,0.062 -0.047,0.109 -0.11,0.109 h -36.894 c -0.063,0 -0.11,-0.047 -0.11,-0.109 V 87.195 c 0,-0.062 0.047,-0.113 0.11,-0.113 z"
           style="fill:#ff9797;fill-opacity:1;fill-rule:nonzero;stroke:#646464;stroke-width:0.283214;stroke-linecap:butt;stroke-linejoin:miter;stroke-miterlimit:4;stroke-dasharray:none;stroke-opacity:1"
           id="path186" />
      </g>
      <g
         id="g188">
        <path
           d="m 287.441,110.09 h 114.934 v 7.766 H 287.441 Z"
           style="fill:#8ec1dd;fill-opacity:1;fill-rule:nonzero;stroke:#000000;stroke-width:0.525;stroke-linecap:butt;stroke-linejoin:miter;stroke-miterlimit:4;stroke-dasharray:4.2, 4.2;stroke-dashoffset:0;stroke-opacity:1"
           id="path190" />
      </g>
      <g
         id="g192">
        <path
           d="m 310.941,86.996 h 9.559 v 51.73 h -9.559 z"
           style="fill:#ffe991;fill-opacity:1;fill-rule:nonzero;stroke:#000000;stroke-width:0.525;stroke-linecap:butt;stroke-linejoin:miter;stroke-miterlimit:4;stroke-dasharray:4.2, 4.2;stroke-dashoffset:0;stroke-opacity:1"
           id="path194" />
      </g>
      <g
         id="g196"
         transform="rotate(-90)">
        <path
           d="m -197.352,451.543 h 111.575 c 1,0 1.808,0.805 1.808,1.805 v 24.515 c 0,1 -0.808,1.805 -1.808,1.805 h -111.575 c -1,0 -1.804,-0.805 -1.804,-1.805 v -24.515 c 0,-1 0.804,-1.805 1.804,-1.805 z"
           style="fill:#ff9955;fill-opacity:1;fill-rule:nonzero;stroke:#646464;stroke-width:0.422441;stroke-linecap:butt;stroke-linejoin:miter;stroke-miterlimit:4;stroke-dasharray:none;stroke-opacity:1"
           id="path198" />
      </g>
      <g
         id="g200"
         transform="rotate(-90)">
        <path
           d="m -112.418,451.5 h 9.918 v 28.191 h -9.918 z"
           style="fill:#ffe991;fill-opacity:1;fill-rule:nonzero;stroke:#000000;stroke-width:0.525;stroke-linecap:butt;stroke-linejoin:miter;stroke-miterlimit:4;stroke-dasharray:4.2, 4.2;stroke-dashoffset:0;stroke-opacity:1"
           id="path202" />
      </g>
      <g
         id="g204"
         transform="rotate(-90)">
        <path
           d="m -197.422,451.465 h 40.652 c 1.008,0 1.817,0.808 1.817,1.812 v 24.657 c 0,1.004 -0.809,1.812 -1.817,1.812 h -40.652 c -1.004,0 -1.816,-0.808 -1.816,-1.812 v -24.657 c 0,-1.004 0.812,-1.812 1.816,-1.812 z"
           style="fill:#ffccaa;fill-opacity:1;fill-rule:nonzero;stroke:#646464;stroke-width:0.26249;stroke-linecap:butt;stroke-linejoin:miter;stroke-miterlimit:4;stroke-dasharray:none;stroke-opacity:1"
           id="path206" />
      </g>
      <g
         id="g208"
         transform="rotate(-90)">
        <path
           d="m -158.816,451.445 h 39.882 v 28.285 h -39.882 z"
           style="fill:#ffb380;fill-opacity:1;fill-rule:nonzero;stroke:#646464;stroke-width:0.249117;stroke-linecap:butt;stroke-linejoin:miter;stroke-miterlimit:4;stroke-dasharray:none;stroke-opacity:1"
           id="path210" />
      </g>
      <g
         id="g212">
        <path
           d="m 84.258,201.906 h 339.855 v -93.48 h 24.211"
           style="fill:none;stroke:#000000;stroke-width:0.69675;stroke-linecap:butt;stroke-linejoin:miter;stroke-miterlimit:4;stroke-dasharray:5.574, 5.574;stroke-dashoffset:3.83212;stroke-opacity:1"
           id="path214" />
      </g>
      <g
         id="g216"
         transform="scale(-1)">
        <path
           d="m -441.355,-108.426 2.785,-2.785 -9.754,2.785 9.754,2.789 z"
           style="fill:#000000;fill-opacity:1;fill-rule:evenodd;stroke:#000000;stroke-width:0.7432;stroke-linecap:butt;stroke-linejoin:miter;stroke-miterlimit:4;stroke-dasharray:none;stroke-opacity:1"
           id="path218" />
      </g>
      <g
         id="g220">
        <path
           d="m 160,169.402 v 32.946"
           style="fill:none;stroke:#000000;stroke-width:0.75;stroke-linecap:butt;stroke-linejoin:miter;stroke-miterlimit:4;stroke-dasharray:6, 6;stroke-dashoffset:4.95;stroke-opacity:1"
           id="path222" />
      </g>
      <g
         id="g224">
        <path
           d="M 415.738,32.422 V 255.469"
           style="fill:none;stroke:#000000;stroke-width:0.75;stroke-linecap:butt;stroke-linejoin:miter;stroke-miterlimit:4;stroke-dasharray:none;stroke-opacity:1"
           id="path226" />
      </g>
      <path
         d="m 301.145,212.395 h 105.848 v 14.129 H 301.145 Z"
         style="fill:#8ec1dd;fill-opacity:1;fill-rule:nonzero;stroke:none"
         id="path228" />
      <text
         xml:space="preserve"
         transform="translate(306.54519,223.91633)"
         style="font-variant:normal;font-weight:normal;font-size:14px;font-family:Arial;-inkscape-font-specification:ArialMT;writing-mode:lr-tb;fill:#000000;fill-opacity:1;fill-rule:nonzero;stroke:none"
         id="text232"><tspan
           x="0 4.6620002 12.446 22.554001 29.554001 33.431999 41.594002 45.472 49.349998 57.133999 64.917999 68.795998 76.580002 81.241997 89.068001"
           y="0"
           id="tspan230">rows = features</tspan></text>
      <path
         d="m 301.301,233.594 h 105.828 v 14.188 H 301.301 Z"
         style="fill:#ffe98f;fill-opacity:1;fill-rule:nonzero;stroke:none"
         id="path234" />
      <text
         xml:space="preserve"
         transform="translate(306.11112,245.87184)"
         style="font-variant:normal;font-weight:normal;font-size:14px;font-family:Arial;-inkscape-font-specification:ArialMT;writing-mode:lr-tb;fill:#000000;fill-opacity:1;fill-rule:nonzero;stroke:none"
         id="text238"><tspan
           x="0 7 14.784 17.892 25.676001 37.338001 45.164001 52.164001 56.042 64.204002 68.082001 75.082001 82.865997 85.973999 89.082001"
           y="0"
           id="tspan236">columns = cells</tspan></text>
      <path
         d="m 424.348,233.594 h 80.84 v 14.188 h -80.84 z"
         style="fill:#ffe98f;fill-opacity:1;fill-rule:nonzero;stroke:none"
         id="path240" />
      <text
         xml:space="preserve"
         transform="translate(428.16731,245.87184)"
         style="font-variant:normal;font-weight:normal;font-size:14px;font-family:Arial;-inkscape-font-specification:ArialMT;writing-mode:lr-tb;fill:#000000;fill-opacity:1;fill-rule:nonzero;stroke:none"
         id="text244"><tspan
           x="0 4.6620002 12.446 22.554001 29.554001 33.431999 41.594002 45.472 52.472 60.256001 63.363998 66.472"
           y="0"
           id="tspan242">rows = cells</tspan></text>
      <path
         d="m 4.043,233.594 h 236.035 v 14.188 H 4.043 Z"
         style="fill:#ff9797;fill-opacity:1;fill-rule:nonzero;stroke:none"
         id="path246" />
      <text
         xml:space="preserve"
         transform="translate(12.744408,244.47776)"
         style="font-variant:normal;font-weight:normal;font-size:14px;font-family:Arial;-inkscape-font-specification:ArialMT;writing-mode:lr-tb;fill:#000000;fill-opacity:1;fill-rule:nonzero;stroke:none"
         id="text250"><tspan
           x="0 7.7839999 14.784 21.784 29.568001 36.568001 40.445999 48.608002"
           y="0"
           id="tspan248">assay = </tspan></text>
      <text
         xml:space="preserve"
         transform="translate(65.230408,244.47776)"
         style="font-style:normal;font-variant:normal;font-weight:normal;font-stretch:normal;font-size:14px;font-family:Courier;-inkscape-font-specification:'Courier, Normal';font-variant-ligatures:normal;font-variant-caps:normal;font-variant-numeric:normal;font-variant-east-asian:normal;writing-mode:lr-tb;fill:#000000;fill-opacity:1;fill-rule:nonzero;stroke:none"
         id="text254"><tspan
           id="tspan1105"
           x="0"
           y="0">SummarizedExperiment</tspan></text>
      <g
         id="g256">
        <path
           d="m 44.355,104.051 h 51.531 v 12.668 H 44.355 Z"
           style="fill:#8ec1dd;fill-opacity:1;fill-rule:nonzero;stroke:#000000;stroke-width:0.525;stroke-linecap:butt;stroke-linejoin:miter;stroke-miterlimit:4;stroke-dasharray:4.2, 4.2;stroke-dashoffset:0;stroke-opacity:1"
           id="path258" />
      </g>
      <g
         id="g260">
        <path
           d="M 79.277,90.191 H 89.539 V 206.086 H 79.277 Z"
           style="fill:#ffe991;fill-opacity:1;fill-rule:nonzero;stroke:#000000;stroke-width:0.525;stroke-linecap:butt;stroke-linejoin:miter;stroke-miterlimit:4;stroke-dasharray:4.2, 4.2;stroke-dashoffset:0;stroke-opacity:1"
           id="path262" />
      </g>
      <text
         xml:space="preserve"
         transform="translate(350.32001,150.52583)"
         style="font-variant:normal;font-weight:normal;font-size:14px;font-family:Courier;-inkscape-font-specification:Courier;writing-mode:lr-tb;fill:#000000;fill-opacity:1;fill-rule:nonzero;stroke:none"
         id="text268"><tspan
           x="0 8.3999996 16.799999 25.200001 33.599998 42"
           y="0"
           id="tspan264">assay5</tspan><tspan
           x="-320.57916 -312.17917 -303.77917 -295.37918 -286.97916 -278.57916 -270.17917 -261.82117"
           y="67.26107"
           id="tspan266">assay1:3</tspan></text>
    </g>
  </g>
</svg>
